<mxfile host="app.diagrams.net" agent="Mozilla/5.0 (X11; Linux x86_64; rv:128.0) Gecko/20100101 Firefox/128.0" version="26.0.14">
  <diagram id="C5RBs43oDa-KdzZeNtuy" name="Page-1">
    <mxGraphModel dx="2470" dy="947" grid="1" gridSize="10" guides="1" tooltips="1" connect="1" arrows="1" fold="1" page="1" pageScale="1" pageWidth="827" pageHeight="1169" math="0" shadow="0">
      <root>
        <mxCell id="WIyWlLk6GJQsqaUBKTNV-0" />
        <mxCell id="WIyWlLk6GJQsqaUBKTNV-1" parent="WIyWlLk6GJQsqaUBKTNV-0" />
        <mxCell id="K-ym3U2dnZnD68SBX74o-20" value="&lt;p style=&quot;margin:0px;margin-top:4px;text-align:center;&quot;&gt;&lt;b&gt;App&lt;/b&gt;&lt;br&gt;&lt;/p&gt;&lt;hr size=&quot;1&quot; style=&quot;border-style:solid;&quot;&gt;&lt;p style=&quot;margin:0px;margin-left:4px;&quot;&gt;+ field1: Type&lt;br&gt;+ field2: Type&lt;/p&gt;&lt;hr size=&quot;1&quot; style=&quot;border-style:solid;&quot;&gt;&lt;p style=&quot;margin:0px;margin-left:4px;&quot;&gt;+ method1(Type): Type&lt;br&gt;+ method2(Type, Type): Type&lt;/p&gt;" style="verticalAlign=top;align=left;overflow=fill;html=1;whiteSpace=wrap;rounded=0;shadow=0;strokeColor=default;strokeWidth=1;fontFamily=Helvetica;fontSize=12;fontColor=default;fontStyle=2;fillColor=default;" vertex="1" parent="WIyWlLk6GJQsqaUBKTNV-1">
          <mxGeometry x="-40" y="240" width="190" height="140" as="geometry" />
        </mxCell>
        <mxCell id="K-ym3U2dnZnD68SBX74o-22" value="&lt;p style=&quot;margin:0px;margin-top:4px;text-align:center;&quot;&gt;&lt;b&gt;Renderer&lt;/b&gt;&lt;br&gt;&lt;/p&gt;&lt;hr size=&quot;1&quot; style=&quot;border-style:solid;&quot;&gt;&lt;p style=&quot;margin:0px;margin-left:4px;&quot;&gt;+ field1: Type&lt;br&gt;+ field2: Type&lt;/p&gt;&lt;hr size=&quot;1&quot; style=&quot;border-style:solid;&quot;&gt;&lt;p style=&quot;margin:0px;margin-left:4px;&quot;&gt;+ method1(Type): Type&lt;br&gt;+ method2(Type, Type): Type&lt;/p&gt;" style="verticalAlign=top;align=left;overflow=fill;html=1;whiteSpace=wrap;rounded=0;shadow=0;strokeColor=default;strokeWidth=1;fontFamily=Helvetica;fontSize=12;fontColor=default;fontStyle=2;fillColor=default;" vertex="1" parent="WIyWlLk6GJQsqaUBKTNV-1">
          <mxGeometry x="-320" y="240" width="190" height="140" as="geometry" />
        </mxCell>
        <mxCell id="K-ym3U2dnZnD68SBX74o-23" value="&lt;p style=&quot;margin:0px;margin-top:4px;text-align:center;&quot;&gt;&lt;b&gt;Object&lt;/b&gt;&lt;br&gt;&lt;/p&gt;&lt;hr size=&quot;1&quot; style=&quot;border-style:solid;&quot;&gt;&lt;p style=&quot;margin:0px;margin-left:4px;&quot;&gt;+ field1: Type&lt;br&gt;+ field2: Type&lt;/p&gt;&lt;hr size=&quot;1&quot; style=&quot;border-style:solid;&quot;&gt;&lt;p style=&quot;margin:0px;margin-left:4px;&quot;&gt;+ method1(Type): Type&lt;br&gt;+ method2(Type, Type): Type&lt;/p&gt;" style="verticalAlign=top;align=left;overflow=fill;html=1;whiteSpace=wrap;rounded=0;shadow=0;strokeColor=default;strokeWidth=1;fontFamily=Helvetica;fontSize=12;fontColor=default;fontStyle=2;fillColor=default;" vertex="1" parent="WIyWlLk6GJQsqaUBKTNV-1">
          <mxGeometry x="460" y="240" width="190" height="140" as="geometry" />
        </mxCell>
        <mxCell id="K-ym3U2dnZnD68SBX74o-24" value="sf::Drawable" style="html=1;whiteSpace=wrap;rounded=0;shadow=0;strokeColor=default;strokeWidth=1;align=center;verticalAlign=top;fontFamily=Helvetica;fontSize=12;fontColor=default;fontStyle=2;fillColor=default;" vertex="1" parent="WIyWlLk6GJQsqaUBKTNV-1">
          <mxGeometry x="717" y="250" width="110" height="30" as="geometry" />
        </mxCell>
        <mxCell id="K-ym3U2dnZnD68SBX74o-28" value="" style="endArrow=block;endFill=1;html=1;edgeStyle=orthogonalEdgeStyle;align=left;verticalAlign=top;rounded=0;hachureGap=4;fontFamily=Helvetica;fontSource=https%3A%2F%2Ffonts.googleapis.com%2Fcss%3Ffamily%3DArchitects%2BDaughter;fontSize=12;fontColor=default;fontStyle=2;exitX=0.5;exitY=0;exitDx=0;exitDy=0;entryX=0.5;entryY=0;entryDx=0;entryDy=0;" edge="1" parent="WIyWlLk6GJQsqaUBKTNV-1" source="K-ym3U2dnZnD68SBX74o-23" target="K-ym3U2dnZnD68SBX74o-24">
          <mxGeometry x="-1" relative="1" as="geometry">
            <mxPoint x="670" y="274.5" as="sourcePoint" />
            <mxPoint x="690" y="320" as="targetPoint" />
          </mxGeometry>
        </mxCell>
        <mxCell id="K-ym3U2dnZnD68SBX74o-29" value="1" style="edgeLabel;resizable=0;html=1;align=left;verticalAlign=bottom;rounded=0;shadow=0;strokeColor=default;strokeWidth=1;fontFamily=Helvetica;fontSize=12;fontColor=default;fontStyle=2;fillColor=default;" connectable="0" vertex="1" parent="K-ym3U2dnZnD68SBX74o-28">
          <mxGeometry x="-1" relative="1" as="geometry" />
        </mxCell>
        <mxCell id="K-ym3U2dnZnD68SBX74o-41" value="" style="edgeLabel;html=1;align=center;verticalAlign=middle;resizable=0;points=[];rounded=0;shadow=0;strokeColor=default;strokeWidth=1;fontFamily=Helvetica;fontSize=12;fontColor=default;fontStyle=2;fillColor=default;" vertex="1" connectable="0" parent="K-ym3U2dnZnD68SBX74o-28">
          <mxGeometry x="-0.7139" y="-2" relative="1" as="geometry">
            <mxPoint x="59" y="-22" as="offset" />
          </mxGeometry>
        </mxCell>
        <mxCell id="K-ym3U2dnZnD68SBX74o-30" value="&lt;p style=&quot;margin:0px;margin-top:4px;text-align:center;&quot;&gt;&lt;b&gt;Seal&lt;/b&gt;&lt;/p&gt;&lt;hr size=&quot;1&quot; style=&quot;border-style:solid;&quot;&gt;&lt;p style=&quot;margin:0px;margin-left:4px;&quot;&gt;+ field1: Type&lt;br&gt;+ field2: Type&lt;/p&gt;&lt;hr size=&quot;1&quot; style=&quot;border-style:solid;&quot;&gt;&lt;p style=&quot;margin:0px;margin-left:4px;&quot;&gt;+ method1(Type): Type&lt;br&gt;+ method2(Type, Type): Type&lt;/p&gt;" style="verticalAlign=top;align=left;overflow=fill;html=1;whiteSpace=wrap;rounded=0;shadow=0;strokeColor=default;strokeWidth=1;fontFamily=Helvetica;fontSize=12;fontColor=default;fontStyle=2;fillColor=default;" vertex="1" parent="WIyWlLk6GJQsqaUBKTNV-1">
          <mxGeometry x="230" y="420" width="190" height="140" as="geometry" />
        </mxCell>
        <mxCell id="K-ym3U2dnZnD68SBX74o-31" value="&lt;p style=&quot;margin:0px;margin-top:4px;text-align:center;&quot;&gt;&lt;i&gt;&lt;b&gt;Penguin&lt;/b&gt;&lt;/i&gt;&lt;/p&gt;&lt;hr size=&quot;1&quot; style=&quot;border-style:solid;&quot;&gt;&lt;p style=&quot;margin:0px;margin-left:4px;&quot;&gt;+ field1: Type&lt;br&gt;+ field2: Type&lt;/p&gt;&lt;hr size=&quot;1&quot; style=&quot;border-style:solid;&quot;&gt;&lt;p style=&quot;margin:0px;margin-left:4px;&quot;&gt;+ method1(Type): Type&lt;br&gt;+ method2(Type, Type): Type&lt;/p&gt;" style="verticalAlign=top;align=left;overflow=fill;html=1;whiteSpace=wrap;rounded=0;shadow=0;strokeColor=default;strokeWidth=1;fontFamily=Helvetica;fontSize=12;fontColor=default;fontStyle=2;fillColor=default;" vertex="1" parent="WIyWlLk6GJQsqaUBKTNV-1">
          <mxGeometry x="520" y="444" width="190" height="140" as="geometry" />
        </mxCell>
        <mxCell id="K-ym3U2dnZnD68SBX74o-32" value="" style="endArrow=diamondThin;endFill=1;endSize=24;html=1;rounded=0;hachureGap=4;fontFamily=Helvetica;fontSource=https%3A%2F%2Ffonts.googleapis.com%2Fcss%3Ffamily%3DArchitects%2BDaughter;fontSize=12;fontColor=default;fontStyle=2;exitX=-0.011;exitY=0.107;exitDx=0;exitDy=0;exitPerimeter=0;entryX=0.989;entryY=0.114;entryDx=0;entryDy=0;entryPerimeter=0;" edge="1" parent="WIyWlLk6GJQsqaUBKTNV-1" source="K-ym3U2dnZnD68SBX74o-23" target="K-ym3U2dnZnD68SBX74o-33">
          <mxGeometry width="160" relative="1" as="geometry">
            <mxPoint x="240" y="290" as="sourcePoint" />
            <mxPoint x="460" y="210" as="targetPoint" />
          </mxGeometry>
        </mxCell>
        <mxCell id="K-ym3U2dnZnD68SBX74o-33" value="&lt;p style=&quot;margin:0px;margin-top:4px;text-align:center;&quot;&gt;&lt;b&gt;ObjectStore&lt;/b&gt;&lt;br&gt;&lt;/p&gt;&lt;hr size=&quot;1&quot; style=&quot;border-style:solid;&quot;&gt;&lt;p style=&quot;margin:0px;margin-left:4px;&quot;&gt;+ field1: Type&lt;br&gt;+ field2: Type&lt;/p&gt;&lt;hr size=&quot;1&quot; style=&quot;border-style:solid;&quot;&gt;&lt;p style=&quot;margin:0px;margin-left:4px;&quot;&gt;+ method1(Type): Type&lt;br&gt;+ method2(Type, Type): Type&lt;/p&gt;" style="verticalAlign=top;align=left;overflow=fill;html=1;whiteSpace=wrap;rounded=0;shadow=0;strokeColor=default;strokeWidth=1;fontFamily=Helvetica;fontSize=12;fontColor=default;fontStyle=2;fillColor=default;" vertex="1" parent="WIyWlLk6GJQsqaUBKTNV-1">
          <mxGeometry x="224" y="240" width="190" height="140" as="geometry" />
        </mxCell>
        <mxCell id="K-ym3U2dnZnD68SBX74o-34" value="" style="endArrow=block;endFill=1;html=1;edgeStyle=orthogonalEdgeStyle;align=left;verticalAlign=top;rounded=0;hachureGap=4;fontFamily=Helvetica;fontSource=https%3A%2F%2Ffonts.googleapis.com%2Fcss%3Ffamily%3DArchitects%2BDaughter;fontSize=12;fontColor=default;fontStyle=2;exitX=0.5;exitY=0;exitDx=0;exitDy=0;entryX=0.5;entryY=1;entryDx=0;entryDy=0;" edge="1" parent="WIyWlLk6GJQsqaUBKTNV-1" source="K-ym3U2dnZnD68SBX74o-30" target="K-ym3U2dnZnD68SBX74o-23">
          <mxGeometry x="-1" relative="1" as="geometry">
            <mxPoint x="487" y="392" as="sourcePoint" />
            <mxPoint x="420" y="380" as="targetPoint" />
          </mxGeometry>
        </mxCell>
        <mxCell id="K-ym3U2dnZnD68SBX74o-35" value="1" style="edgeLabel;resizable=0;html=1;align=left;verticalAlign=bottom;rounded=0;shadow=0;strokeColor=default;strokeWidth=1;fontFamily=Helvetica;fontSize=12;fontColor=default;fontStyle=2;fillColor=default;" connectable="0" vertex="1" parent="K-ym3U2dnZnD68SBX74o-34">
          <mxGeometry x="-1" relative="1" as="geometry" />
        </mxCell>
        <mxCell id="K-ym3U2dnZnD68SBX74o-36" value="" style="endArrow=block;endFill=1;html=1;edgeStyle=orthogonalEdgeStyle;align=left;verticalAlign=top;rounded=0;hachureGap=4;fontFamily=Helvetica;fontSource=https%3A%2F%2Ffonts.googleapis.com%2Fcss%3Ffamily%3DArchitects%2BDaughter;fontSize=12;fontColor=default;fontStyle=2;exitX=0.5;exitY=0;exitDx=0;exitDy=0;entryX=0.5;entryY=1;entryDx=0;entryDy=0;" edge="1" parent="WIyWlLk6GJQsqaUBKTNV-1" source="K-ym3U2dnZnD68SBX74o-31" target="K-ym3U2dnZnD68SBX74o-23">
          <mxGeometry x="-1" relative="1" as="geometry">
            <mxPoint x="560" y="450" as="sourcePoint" />
            <mxPoint x="710" y="420" as="targetPoint" />
          </mxGeometry>
        </mxCell>
        <mxCell id="K-ym3U2dnZnD68SBX74o-37" value="1" style="edgeLabel;resizable=0;html=1;align=left;verticalAlign=bottom;rounded=0;shadow=0;strokeColor=default;strokeWidth=1;fontFamily=Helvetica;fontSize=12;fontColor=default;fontStyle=2;fillColor=default;" connectable="0" vertex="1" parent="K-ym3U2dnZnD68SBX74o-36">
          <mxGeometry x="-1" relative="1" as="geometry" />
        </mxCell>
        <mxCell id="K-ym3U2dnZnD68SBX74o-38" value="" style="endArrow=diamondThin;endFill=1;endSize=24;html=1;rounded=0;hachureGap=4;fontFamily=Helvetica;fontSource=https%3A%2F%2Ffonts.googleapis.com%2Fcss%3Ffamily%3DArchitects%2BDaughter;fontSize=12;fontColor=default;fontStyle=2;exitX=0.011;exitY=0.086;exitDx=0;exitDy=0;exitPerimeter=0;entryX=0.995;entryY=0.079;entryDx=0;entryDy=0;entryPerimeter=0;" edge="1" parent="WIyWlLk6GJQsqaUBKTNV-1" source="K-ym3U2dnZnD68SBX74o-33" target="K-ym3U2dnZnD68SBX74o-20">
          <mxGeometry width="160" relative="1" as="geometry">
            <mxPoint x="196" y="320" as="sourcePoint" />
            <mxPoint x="150" y="321" as="targetPoint" />
          </mxGeometry>
        </mxCell>
        <mxCell id="K-ym3U2dnZnD68SBX74o-39" value="" style="endArrow=diamondThin;endFill=1;endSize=24;html=1;rounded=0;hachureGap=4;fontFamily=Helvetica;fontSource=https%3A%2F%2Ffonts.googleapis.com%2Fcss%3Ffamily%3DArchitects%2BDaughter;fontSize=12;fontColor=default;fontStyle=2;entryX=0;entryY=0.086;entryDx=0;entryDy=0;exitX=1.016;exitY=0.1;exitDx=0;exitDy=0;exitPerimeter=0;entryPerimeter=0;" edge="1" parent="WIyWlLk6GJQsqaUBKTNV-1" source="K-ym3U2dnZnD68SBX74o-22" target="K-ym3U2dnZnD68SBX74o-20">
          <mxGeometry width="160" relative="1" as="geometry">
            <mxPoint x="147" y="391" as="sourcePoint" />
            <mxPoint x="90" y="310" as="targetPoint" />
          </mxGeometry>
        </mxCell>
        <mxCell id="K-ym3U2dnZnD68SBX74o-42" value="&lt;p style=&quot;margin:0px;margin-top:4px;text-align:center;&quot;&gt;&lt;b&gt;Projectile&lt;/b&gt;&lt;/p&gt;&lt;hr size=&quot;1&quot; style=&quot;border-style:solid;&quot;&gt;&lt;p style=&quot;margin:0px;margin-left:4px;&quot;&gt;+ field1: Type&lt;br&gt;+ field2: Type&lt;/p&gt;&lt;hr size=&quot;1&quot; style=&quot;border-style:solid;&quot;&gt;&lt;p style=&quot;margin:0px;margin-left:4px;&quot;&gt;+ method1(Type): Type&lt;br&gt;+ method2(Type, Type): Type&lt;/p&gt;" style="verticalAlign=top;align=left;overflow=fill;html=1;whiteSpace=wrap;rounded=0;shadow=0;strokeColor=default;strokeWidth=1;fontFamily=Helvetica;fontSize=12;fontColor=default;fontStyle=2;fillColor=default;" vertex="1" parent="WIyWlLk6GJQsqaUBKTNV-1">
          <mxGeometry x="840" y="420" width="190" height="140" as="geometry" />
        </mxCell>
        <mxCell id="K-ym3U2dnZnD68SBX74o-44" value="&lt;p style=&quot;margin:0px;margin-top:4px;text-align:center;&quot;&gt;&lt;i&gt;&lt;b&gt;Baller&lt;/b&gt;&lt;/i&gt;&lt;/p&gt;&lt;hr size=&quot;1&quot; style=&quot;border-style:solid;&quot;&gt;&lt;p style=&quot;margin:0px;margin-left:4px;&quot;&gt;+ field1: Type&lt;br&gt;+ field2: Type&lt;/p&gt;&lt;hr size=&quot;1&quot; style=&quot;border-style:solid;&quot;&gt;&lt;p style=&quot;margin:0px;margin-left:4px;&quot;&gt;+ method1(Type): Type&lt;br&gt;+ method2(Type, Type): Type&lt;/p&gt;" style="verticalAlign=top;align=left;overflow=fill;html=1;whiteSpace=wrap;rounded=0;shadow=0;strokeColor=default;strokeWidth=1;fontFamily=Helvetica;fontSize=12;fontColor=default;fontStyle=2;fillColor=default;" vertex="1" parent="WIyWlLk6GJQsqaUBKTNV-1">
          <mxGeometry x="570" y="860" width="190" height="140" as="geometry" />
        </mxCell>
        <mxCell id="K-ym3U2dnZnD68SBX74o-45" value="&lt;p style=&quot;margin:0px;margin-top:4px;text-align:center;&quot;&gt;&lt;b&gt;Snowball&lt;/b&gt;&lt;/p&gt;&lt;hr size=&quot;1&quot; style=&quot;border-style:solid;&quot;&gt;&lt;p style=&quot;margin:0px;margin-left:4px;&quot;&gt;+ field1: Type&lt;br&gt;+ field2: Type&lt;/p&gt;&lt;hr size=&quot;1&quot; style=&quot;border-style:solid;&quot;&gt;&lt;p style=&quot;margin:0px;margin-left:4px;&quot;&gt;+ method1(Type): Type&lt;br&gt;+ method2(Type, Type): Type&lt;/p&gt;" style="verticalAlign=top;align=left;overflow=fill;html=1;whiteSpace=wrap;rounded=0;shadow=0;strokeColor=default;strokeWidth=1;fontFamily=Helvetica;fontSize=12;fontColor=default;fontStyle=2;fillColor=default;" vertex="1" parent="WIyWlLk6GJQsqaUBKTNV-1">
          <mxGeometry x="1070" y="600" width="190" height="140" as="geometry" />
        </mxCell>
        <mxCell id="K-ym3U2dnZnD68SBX74o-46" value="&lt;p style=&quot;margin:0px;margin-top:4px;text-align:center;&quot;&gt;&lt;b&gt;Regular&lt;/b&gt;&lt;br&gt;&lt;/p&gt;&lt;hr size=&quot;1&quot; style=&quot;border-style:solid;&quot;&gt;&lt;p style=&quot;margin:0px;margin-left:4px;&quot;&gt;+ field1: Type&lt;br&gt;+ field2: Type&lt;/p&gt;&lt;hr size=&quot;1&quot; style=&quot;border-style:solid;&quot;&gt;&lt;p style=&quot;margin:0px;margin-left:4px;&quot;&gt;+ method1(Type): Type&lt;br&gt;+ method2(Type, Type): Type&lt;/p&gt;" style="verticalAlign=top;align=left;overflow=fill;html=1;whiteSpace=wrap;rounded=0;shadow=0;strokeColor=default;strokeWidth=1;fontFamily=Helvetica;fontSize=12;fontColor=default;fontStyle=2;fillColor=default;" vertex="1" parent="WIyWlLk6GJQsqaUBKTNV-1">
          <mxGeometry x="340" y="620" width="190" height="140" as="geometry" />
        </mxCell>
        <mxCell id="K-ym3U2dnZnD68SBX74o-47" value="&lt;p style=&quot;margin:0px;margin-top:4px;text-align:center;&quot;&gt;&lt;b&gt;Baby&lt;/b&gt;&lt;br&gt;&lt;/p&gt;&lt;hr size=&quot;1&quot; style=&quot;border-style:solid;&quot;&gt;&lt;p style=&quot;margin:0px;margin-left:4px;&quot;&gt;+ field1: Type&lt;br&gt;+ field2: Type&lt;/p&gt;&lt;hr size=&quot;1&quot; style=&quot;border-style:solid;&quot;&gt;&lt;p style=&quot;margin:0px;margin-left:4px;&quot;&gt;+ method1(Type): Type&lt;br&gt;+ method2(Type, Type): Type&lt;/p&gt;" style="verticalAlign=top;align=left;overflow=fill;html=1;whiteSpace=wrap;rounded=0;shadow=0;strokeColor=default;strokeWidth=1;fontFamily=Helvetica;fontSize=12;fontColor=default;fontStyle=2;fillColor=default;" vertex="1" parent="WIyWlLk6GJQsqaUBKTNV-1">
          <mxGeometry x="60" y="610" width="190" height="140" as="geometry" />
        </mxCell>
        <mxCell id="K-ym3U2dnZnD68SBX74o-48" value="" style="endArrow=block;endFill=1;html=1;edgeStyle=orthogonalEdgeStyle;align=left;verticalAlign=top;rounded=0;hachureGap=4;fontFamily=Helvetica;fontSource=https%3A%2F%2Ffonts.googleapis.com%2Fcss%3Ffamily%3DArchitects%2BDaughter;fontSize=12;fontColor=default;fontStyle=2;exitX=0.5;exitY=0;exitDx=0;exitDy=0;entryX=0.5;entryY=1;entryDx=0;entryDy=0;" edge="1" parent="WIyWlLk6GJQsqaUBKTNV-1" source="K-ym3U2dnZnD68SBX74o-42" target="K-ym3U2dnZnD68SBX74o-23">
          <mxGeometry x="-1" relative="1" as="geometry">
            <mxPoint x="810" y="420" as="sourcePoint" />
            <mxPoint x="670" y="390" as="targetPoint" />
          </mxGeometry>
        </mxCell>
        <mxCell id="K-ym3U2dnZnD68SBX74o-49" value="1" style="edgeLabel;resizable=0;html=1;align=left;verticalAlign=bottom;rounded=0;shadow=0;strokeColor=default;strokeWidth=1;fontFamily=Helvetica;fontSize=12;fontColor=default;fontStyle=2;fillColor=default;" connectable="0" vertex="1" parent="K-ym3U2dnZnD68SBX74o-48">
          <mxGeometry x="-1" relative="1" as="geometry" />
        </mxCell>
        <mxCell id="K-ym3U2dnZnD68SBX74o-50" value="" style="edgeLabel;html=1;align=center;verticalAlign=middle;resizable=0;points=[];rounded=0;shadow=0;strokeColor=default;strokeWidth=1;fontFamily=Helvetica;fontSize=12;fontColor=default;fontStyle=2;fillColor=default;" vertex="1" connectable="0" parent="K-ym3U2dnZnD68SBX74o-48">
          <mxGeometry x="-0.7921" y="-2" relative="1" as="geometry">
            <mxPoint as="offset" />
          </mxGeometry>
        </mxCell>
        <mxCell id="K-ym3U2dnZnD68SBX74o-51" value="" style="edgeLabel;html=1;align=center;verticalAlign=middle;resizable=0;points=[];rounded=0;shadow=0;strokeColor=default;strokeWidth=1;fontFamily=Helvetica;fontSize=12;fontColor=default;fontStyle=2;fillColor=default;" vertex="1" connectable="0" parent="K-ym3U2dnZnD68SBX74o-48">
          <mxGeometry x="-0.845" relative="1" as="geometry">
            <mxPoint as="offset" />
          </mxGeometry>
        </mxCell>
        <mxCell id="K-ym3U2dnZnD68SBX74o-52" value="" style="endArrow=block;endFill=1;html=1;edgeStyle=orthogonalEdgeStyle;align=left;verticalAlign=top;rounded=0;hachureGap=4;fontFamily=Helvetica;fontSource=https%3A%2F%2Ffonts.googleapis.com%2Fcss%3Ffamily%3DArchitects%2BDaughter;fontSize=12;fontColor=default;fontStyle=2;exitX=0.5;exitY=0;exitDx=0;exitDy=0;entryX=0.5;entryY=1;entryDx=0;entryDy=0;" edge="1" parent="WIyWlLk6GJQsqaUBKTNV-1" source="K-ym3U2dnZnD68SBX74o-45" target="K-ym3U2dnZnD68SBX74o-42">
          <mxGeometry x="-1" relative="1" as="geometry">
            <mxPoint x="962" y="635" as="sourcePoint" />
            <mxPoint x="690.0000000000005" y="570" as="targetPoint" />
          </mxGeometry>
        </mxCell>
        <mxCell id="K-ym3U2dnZnD68SBX74o-53" value="1" style="edgeLabel;resizable=0;html=1;align=left;verticalAlign=bottom;rounded=0;shadow=0;strokeColor=default;strokeWidth=1;fontFamily=Helvetica;fontSize=12;fontColor=default;fontStyle=2;fillColor=default;" connectable="0" vertex="1" parent="K-ym3U2dnZnD68SBX74o-52">
          <mxGeometry x="-1" relative="1" as="geometry" />
        </mxCell>
        <mxCell id="K-ym3U2dnZnD68SBX74o-54" value="" style="edgeLabel;html=1;align=center;verticalAlign=middle;resizable=0;points=[];rounded=0;shadow=0;strokeColor=default;strokeWidth=1;fontFamily=Helvetica;fontSize=12;fontColor=default;fontStyle=2;fillColor=default;" vertex="1" connectable="0" parent="K-ym3U2dnZnD68SBX74o-52">
          <mxGeometry x="-0.7921" y="-2" relative="1" as="geometry">
            <mxPoint as="offset" />
          </mxGeometry>
        </mxCell>
        <mxCell id="K-ym3U2dnZnD68SBX74o-55" value="" style="edgeLabel;html=1;align=center;verticalAlign=middle;resizable=0;points=[];rounded=0;shadow=0;strokeColor=default;strokeWidth=1;fontFamily=Helvetica;fontSize=12;fontColor=default;fontStyle=2;fillColor=default;" vertex="1" connectable="0" parent="K-ym3U2dnZnD68SBX74o-52">
          <mxGeometry x="-0.845" relative="1" as="geometry">
            <mxPoint as="offset" />
          </mxGeometry>
        </mxCell>
        <mxCell id="K-ym3U2dnZnD68SBX74o-56" value="" style="endArrow=block;endFill=1;html=1;edgeStyle=orthogonalEdgeStyle;align=left;verticalAlign=top;rounded=0;hachureGap=4;fontFamily=Helvetica;fontSource=https%3A%2F%2Ffonts.googleapis.com%2Fcss%3Ffamily%3DArchitects%2BDaughter;fontSize=12;fontColor=default;fontStyle=2;exitX=0.5;exitY=0;exitDx=0;exitDy=0;" edge="1" parent="WIyWlLk6GJQsqaUBKTNV-1" source="K-ym3U2dnZnD68SBX74o-44" target="K-ym3U2dnZnD68SBX74o-31">
          <mxGeometry x="-1" relative="1" as="geometry">
            <mxPoint x="955" y="650" as="sourcePoint" />
            <mxPoint x="955" y="560" as="targetPoint" />
          </mxGeometry>
        </mxCell>
        <mxCell id="K-ym3U2dnZnD68SBX74o-57" value="1" style="edgeLabel;resizable=0;html=1;align=left;verticalAlign=bottom;rounded=0;shadow=0;strokeColor=default;strokeWidth=1;fontFamily=Helvetica;fontSize=12;fontColor=default;fontStyle=2;fillColor=default;" connectable="0" vertex="1" parent="K-ym3U2dnZnD68SBX74o-56">
          <mxGeometry x="-1" relative="1" as="geometry" />
        </mxCell>
        <mxCell id="K-ym3U2dnZnD68SBX74o-58" value="" style="edgeLabel;html=1;align=center;verticalAlign=middle;resizable=0;points=[];rounded=0;shadow=0;strokeColor=default;strokeWidth=1;fontFamily=Helvetica;fontSize=12;fontColor=default;fontStyle=2;fillColor=default;" vertex="1" connectable="0" parent="K-ym3U2dnZnD68SBX74o-56">
          <mxGeometry x="-0.7921" y="-2" relative="1" as="geometry">
            <mxPoint as="offset" />
          </mxGeometry>
        </mxCell>
        <mxCell id="K-ym3U2dnZnD68SBX74o-59" value="" style="edgeLabel;html=1;align=center;verticalAlign=middle;resizable=0;points=[];rounded=0;shadow=0;strokeColor=default;strokeWidth=1;fontFamily=Helvetica;fontSize=12;fontColor=default;fontStyle=2;fillColor=default;" vertex="1" connectable="0" parent="K-ym3U2dnZnD68SBX74o-56">
          <mxGeometry x="-0.845" relative="1" as="geometry">
            <mxPoint as="offset" />
          </mxGeometry>
        </mxCell>
        <mxCell id="K-ym3U2dnZnD68SBX74o-60" value="&lt;p style=&quot;margin:0px;margin-top:4px;text-align:center;&quot;&gt;&lt;b&gt;Fortified&lt;/b&gt;&lt;br&gt;&lt;/p&gt;&lt;hr size=&quot;1&quot; style=&quot;border-style:solid;&quot;&gt;&lt;p style=&quot;margin:0px;margin-left:4px;&quot;&gt;+ field1: Type&lt;br&gt;+ field2: Type&lt;/p&gt;&lt;hr size=&quot;1&quot; style=&quot;border-style:solid;&quot;&gt;&lt;p style=&quot;margin:0px;margin-left:4px;&quot;&gt;+ method1(Type): Type&lt;br&gt;+ method2(Type, Type): Type&lt;/p&gt;" style="verticalAlign=top;align=left;overflow=fill;html=1;whiteSpace=wrap;rounded=0;shadow=0;strokeColor=default;strokeWidth=1;fontFamily=Helvetica;fontSize=12;fontColor=default;fontStyle=2;fillColor=default;" vertex="1" parent="WIyWlLk6GJQsqaUBKTNV-1">
          <mxGeometry x="-240" y="590" width="190" height="140" as="geometry" />
        </mxCell>
        <mxCell id="K-ym3U2dnZnD68SBX74o-61" value="&lt;p style=&quot;margin:0px;margin-top:4px;text-align:center;&quot;&gt;&lt;b&gt;FortifiedBaby&lt;/b&gt;&lt;br&gt;&lt;/p&gt;&lt;hr size=&quot;1&quot; style=&quot;border-style:solid;&quot;&gt;&lt;p style=&quot;margin:0px;margin-left:4px;&quot;&gt;+ field1: Type&lt;br&gt;+ field2: Type&lt;/p&gt;&lt;hr size=&quot;1&quot; style=&quot;border-style:solid;&quot;&gt;&lt;p style=&quot;margin:0px;margin-left:4px;&quot;&gt;+ method1(Type): Type&lt;br&gt;+ method2(Type, Type): Type&lt;/p&gt;" style="verticalAlign=top;align=left;overflow=fill;html=1;whiteSpace=wrap;rounded=0;shadow=0;strokeColor=default;strokeWidth=1;fontFamily=Helvetica;fontSize=12;fontColor=default;fontStyle=2;fillColor=default;" vertex="1" parent="WIyWlLk6GJQsqaUBKTNV-1">
          <mxGeometry x="-120" y="900" width="190" height="140" as="geometry" />
        </mxCell>
        <mxCell id="K-ym3U2dnZnD68SBX74o-62" value="" style="endArrow=block;endFill=1;html=1;edgeStyle=orthogonalEdgeStyle;align=left;verticalAlign=top;rounded=0;hachureGap=4;fontFamily=Helvetica;fontSource=https%3A%2F%2Ffonts.googleapis.com%2Fcss%3Ffamily%3DArchitects%2BDaughter;fontSize=12;fontColor=default;fontStyle=2;exitX=0.5;exitY=0;exitDx=0;exitDy=0;entryX=0.5;entryY=1;entryDx=0;entryDy=0;" edge="1" parent="WIyWlLk6GJQsqaUBKTNV-1" source="K-ym3U2dnZnD68SBX74o-46" target="K-ym3U2dnZnD68SBX74o-30">
          <mxGeometry x="-1" relative="1" as="geometry">
            <mxPoint x="320" y="600" as="sourcePoint" />
            <mxPoint x="260" y="560" as="targetPoint" />
          </mxGeometry>
        </mxCell>
        <mxCell id="K-ym3U2dnZnD68SBX74o-63" value="1" style="edgeLabel;resizable=0;html=1;align=left;verticalAlign=bottom;rounded=0;shadow=0;strokeColor=default;strokeWidth=1;fontFamily=Helvetica;fontSize=12;fontColor=default;fontStyle=2;fillColor=default;" connectable="0" vertex="1" parent="K-ym3U2dnZnD68SBX74o-62">
          <mxGeometry x="-1" relative="1" as="geometry" />
        </mxCell>
        <mxCell id="K-ym3U2dnZnD68SBX74o-64" value="" style="edgeLabel;html=1;align=center;verticalAlign=middle;resizable=0;points=[];rounded=0;shadow=0;strokeColor=default;strokeWidth=1;fontFamily=Helvetica;fontSize=12;fontColor=default;fontStyle=2;fillColor=default;" vertex="1" connectable="0" parent="K-ym3U2dnZnD68SBX74o-62">
          <mxGeometry x="-0.7921" y="-2" relative="1" as="geometry">
            <mxPoint as="offset" />
          </mxGeometry>
        </mxCell>
        <mxCell id="K-ym3U2dnZnD68SBX74o-65" value="" style="edgeLabel;html=1;align=center;verticalAlign=middle;resizable=0;points=[];rounded=0;shadow=0;strokeColor=default;strokeWidth=1;fontFamily=Helvetica;fontSize=12;fontColor=default;fontStyle=2;fillColor=default;" vertex="1" connectable="0" parent="K-ym3U2dnZnD68SBX74o-62">
          <mxGeometry x="-0.845" relative="1" as="geometry">
            <mxPoint as="offset" />
          </mxGeometry>
        </mxCell>
        <mxCell id="K-ym3U2dnZnD68SBX74o-66" value="" style="endArrow=block;endFill=1;html=1;edgeStyle=orthogonalEdgeStyle;align=left;verticalAlign=top;rounded=0;hachureGap=4;fontFamily=Helvetica;fontSource=https%3A%2F%2Ffonts.googleapis.com%2Fcss%3Ffamily%3DArchitects%2BDaughter;fontSize=12;fontColor=default;fontStyle=2;exitX=0.5;exitY=0;exitDx=0;exitDy=0;entryX=0.5;entryY=1;entryDx=0;entryDy=0;" edge="1" parent="WIyWlLk6GJQsqaUBKTNV-1" source="K-ym3U2dnZnD68SBX74o-47" target="K-ym3U2dnZnD68SBX74o-30">
          <mxGeometry x="-1" relative="1" as="geometry">
            <mxPoint x="320" y="634" as="sourcePoint" />
            <mxPoint x="420" y="610" as="targetPoint" />
          </mxGeometry>
        </mxCell>
        <mxCell id="K-ym3U2dnZnD68SBX74o-67" value="1" style="edgeLabel;resizable=0;html=1;align=left;verticalAlign=bottom;rounded=0;shadow=0;strokeColor=default;strokeWidth=1;fontFamily=Helvetica;fontSize=12;fontColor=default;fontStyle=2;fillColor=default;" connectable="0" vertex="1" parent="K-ym3U2dnZnD68SBX74o-66">
          <mxGeometry x="-1" relative="1" as="geometry" />
        </mxCell>
        <mxCell id="K-ym3U2dnZnD68SBX74o-68" value="" style="edgeLabel;html=1;align=center;verticalAlign=middle;resizable=0;points=[];rounded=0;shadow=0;strokeColor=default;strokeWidth=1;fontFamily=Helvetica;fontSize=12;fontColor=default;fontStyle=2;fillColor=default;" vertex="1" connectable="0" parent="K-ym3U2dnZnD68SBX74o-66">
          <mxGeometry x="-0.7921" y="-2" relative="1" as="geometry">
            <mxPoint as="offset" />
          </mxGeometry>
        </mxCell>
        <mxCell id="K-ym3U2dnZnD68SBX74o-69" value="" style="edgeLabel;html=1;align=center;verticalAlign=middle;resizable=0;points=[];rounded=0;shadow=0;strokeColor=default;strokeWidth=1;fontFamily=Helvetica;fontSize=12;fontColor=default;fontStyle=2;fillColor=default;" vertex="1" connectable="0" parent="K-ym3U2dnZnD68SBX74o-66">
          <mxGeometry x="-0.845" relative="1" as="geometry">
            <mxPoint as="offset" />
          </mxGeometry>
        </mxCell>
        <mxCell id="K-ym3U2dnZnD68SBX74o-70" value="" style="endArrow=block;endFill=1;html=1;edgeStyle=orthogonalEdgeStyle;align=left;verticalAlign=top;rounded=0;hachureGap=4;fontFamily=Helvetica;fontSource=https%3A%2F%2Ffonts.googleapis.com%2Fcss%3Ffamily%3DArchitects%2BDaughter;fontSize=12;fontColor=default;fontStyle=2;exitX=0.5;exitY=0;exitDx=0;exitDy=0;entryX=0.5;entryY=1;entryDx=0;entryDy=0;" edge="1" parent="WIyWlLk6GJQsqaUBKTNV-1" source="K-ym3U2dnZnD68SBX74o-61" target="K-ym3U2dnZnD68SBX74o-47">
          <mxGeometry x="-1" relative="1" as="geometry">
            <mxPoint x="414" y="854" as="sourcePoint" />
            <mxPoint x="514" y="830" as="targetPoint" />
          </mxGeometry>
        </mxCell>
        <mxCell id="K-ym3U2dnZnD68SBX74o-71" value="1" style="edgeLabel;resizable=0;html=1;align=left;verticalAlign=bottom;rounded=0;shadow=0;strokeColor=default;strokeWidth=1;fontFamily=Helvetica;fontSize=12;fontColor=default;fontStyle=2;fillColor=default;" connectable="0" vertex="1" parent="K-ym3U2dnZnD68SBX74o-70">
          <mxGeometry x="-1" relative="1" as="geometry" />
        </mxCell>
        <mxCell id="K-ym3U2dnZnD68SBX74o-72" value="" style="edgeLabel;html=1;align=center;verticalAlign=middle;resizable=0;points=[];rounded=0;shadow=0;strokeColor=default;strokeWidth=1;fontFamily=Helvetica;fontSize=12;fontColor=default;fontStyle=2;fillColor=default;" vertex="1" connectable="0" parent="K-ym3U2dnZnD68SBX74o-70">
          <mxGeometry x="-0.7921" y="-2" relative="1" as="geometry">
            <mxPoint as="offset" />
          </mxGeometry>
        </mxCell>
        <mxCell id="K-ym3U2dnZnD68SBX74o-73" value="" style="edgeLabel;html=1;align=center;verticalAlign=middle;resizable=0;points=[];rounded=0;shadow=0;strokeColor=default;strokeWidth=1;fontFamily=Helvetica;fontSize=12;fontColor=default;fontStyle=2;fillColor=default;" vertex="1" connectable="0" parent="K-ym3U2dnZnD68SBX74o-70">
          <mxGeometry x="-0.845" relative="1" as="geometry">
            <mxPoint as="offset" />
          </mxGeometry>
        </mxCell>
        <mxCell id="K-ym3U2dnZnD68SBX74o-78" value="" style="endArrow=block;endFill=1;html=1;edgeStyle=orthogonalEdgeStyle;align=left;verticalAlign=top;rounded=0;hachureGap=4;fontFamily=Helvetica;fontSource=https%3A%2F%2Ffonts.googleapis.com%2Fcss%3Ffamily%3DArchitects%2BDaughter;fontSize=12;fontColor=default;fontStyle=2;exitX=0.5;exitY=0;exitDx=0;exitDy=0;entryX=0.5;entryY=1;entryDx=0;entryDy=0;" edge="1" parent="WIyWlLk6GJQsqaUBKTNV-1" source="K-ym3U2dnZnD68SBX74o-60" target="K-ym3U2dnZnD68SBX74o-30">
          <mxGeometry x="-1" relative="1" as="geometry">
            <mxPoint x="50" y="675" as="sourcePoint" />
            <mxPoint x="100" y="520" as="targetPoint" />
          </mxGeometry>
        </mxCell>
        <mxCell id="K-ym3U2dnZnD68SBX74o-79" value="1" style="edgeLabel;resizable=0;html=1;align=left;verticalAlign=bottom;rounded=0;shadow=0;strokeColor=default;strokeWidth=1;fontFamily=Helvetica;fontSize=12;fontColor=default;fontStyle=2;fillColor=default;" connectable="0" vertex="1" parent="K-ym3U2dnZnD68SBX74o-78">
          <mxGeometry x="-1" relative="1" as="geometry" />
        </mxCell>
        <mxCell id="K-ym3U2dnZnD68SBX74o-80" value="" style="edgeLabel;html=1;align=center;verticalAlign=middle;resizable=0;points=[];rounded=0;shadow=0;strokeColor=default;strokeWidth=1;fontFamily=Helvetica;fontSize=12;fontColor=default;fontStyle=2;fillColor=default;" vertex="1" connectable="0" parent="K-ym3U2dnZnD68SBX74o-78">
          <mxGeometry x="-0.7921" y="-2" relative="1" as="geometry">
            <mxPoint as="offset" />
          </mxGeometry>
        </mxCell>
        <mxCell id="K-ym3U2dnZnD68SBX74o-81" value="" style="edgeLabel;html=1;align=center;verticalAlign=middle;resizable=0;points=[];rounded=0;shadow=0;strokeColor=default;strokeWidth=1;fontFamily=Helvetica;fontSize=12;fontColor=default;fontStyle=2;fillColor=default;" vertex="1" connectable="0" parent="K-ym3U2dnZnD68SBX74o-78">
          <mxGeometry x="-0.845" relative="1" as="geometry">
            <mxPoint as="offset" />
          </mxGeometry>
        </mxCell>
        <mxCell id="K-ym3U2dnZnD68SBX74o-82" value="" style="endArrow=block;endFill=1;html=1;edgeStyle=orthogonalEdgeStyle;align=left;verticalAlign=top;rounded=0;hachureGap=4;fontFamily=Helvetica;fontSource=https%3A%2F%2Ffonts.googleapis.com%2Fcss%3Ffamily%3DArchitects%2BDaughter;fontSize=12;fontColor=default;fontStyle=2;exitX=0.5;exitY=0;exitDx=0;exitDy=0;entryX=0.5;entryY=1;entryDx=0;entryDy=0;" edge="1" parent="WIyWlLk6GJQsqaUBKTNV-1" source="K-ym3U2dnZnD68SBX74o-61" target="K-ym3U2dnZnD68SBX74o-60">
          <mxGeometry x="-1" relative="1" as="geometry">
            <mxPoint x="-15" y="910" as="sourcePoint" />
            <mxPoint x="165" y="760" as="targetPoint" />
          </mxGeometry>
        </mxCell>
        <mxCell id="K-ym3U2dnZnD68SBX74o-83" value="1" style="edgeLabel;resizable=0;html=1;align=left;verticalAlign=bottom;rounded=0;shadow=0;strokeColor=default;strokeWidth=1;fontFamily=Helvetica;fontSize=12;fontColor=default;fontStyle=2;fillColor=default;" connectable="0" vertex="1" parent="K-ym3U2dnZnD68SBX74o-82">
          <mxGeometry x="-1" relative="1" as="geometry" />
        </mxCell>
        <mxCell id="K-ym3U2dnZnD68SBX74o-84" value="" style="edgeLabel;html=1;align=center;verticalAlign=middle;resizable=0;points=[];rounded=0;shadow=0;strokeColor=default;strokeWidth=1;fontFamily=Helvetica;fontSize=12;fontColor=default;fontStyle=2;fillColor=default;" vertex="1" connectable="0" parent="K-ym3U2dnZnD68SBX74o-82">
          <mxGeometry x="-0.7921" y="-2" relative="1" as="geometry">
            <mxPoint as="offset" />
          </mxGeometry>
        </mxCell>
        <mxCell id="K-ym3U2dnZnD68SBX74o-85" value="" style="edgeLabel;html=1;align=center;verticalAlign=middle;resizable=0;points=[];rounded=0;shadow=0;strokeColor=default;strokeWidth=1;fontFamily=Helvetica;fontSize=12;fontColor=default;fontStyle=2;fillColor=default;" vertex="1" connectable="0" parent="K-ym3U2dnZnD68SBX74o-82">
          <mxGeometry x="-0.845" relative="1" as="geometry">
            <mxPoint as="offset" />
          </mxGeometry>
        </mxCell>
        <mxCell id="K-ym3U2dnZnD68SBX74o-86" value="" style="endArrow=diamondThin;endFill=1;endSize=24;html=1;rounded=0;hachureGap=4;fontFamily=Helvetica;fontSource=https%3A%2F%2Ffonts.googleapis.com%2Fcss%3Ffamily%3DArchitects%2BDaughter;fontSize=12;fontColor=default;fontStyle=2;exitX=0.202;exitY=0.962;exitDx=0;exitDy=0;entryX=0.25;entryY=0;entryDx=0;entryDy=0;exitPerimeter=0;" edge="1" parent="WIyWlLk6GJQsqaUBKTNV-1" source="K-ym3U2dnZnD68SBX74o-42" target="K-ym3U2dnZnD68SBX74o-87">
          <mxGeometry width="160" relative="1" as="geometry">
            <mxPoint x="888" y="560" as="sourcePoint" />
            <mxPoint x="888" y="880" as="targetPoint" />
          </mxGeometry>
        </mxCell>
        <mxCell id="K-ym3U2dnZnD68SBX74o-87" value="&lt;p style=&quot;margin:0px;margin-top:4px;text-align:center;&quot;&gt;&lt;b&gt;ProjectileStore&lt;/b&gt;&lt;/p&gt;&lt;hr size=&quot;1&quot; style=&quot;border-style:solid;&quot;&gt;&lt;p style=&quot;margin:0px;margin-left:4px;&quot;&gt;+ field1: Type&lt;br&gt;+ field2: Type&lt;/p&gt;&lt;hr size=&quot;1&quot; style=&quot;border-style:solid;&quot;&gt;&lt;p style=&quot;margin:0px;margin-left:4px;&quot;&gt;+ method1(Type): Type&lt;br&gt;+ method2(Type, Type): Type&lt;/p&gt;" style="verticalAlign=top;align=left;overflow=fill;html=1;whiteSpace=wrap;rounded=0;shadow=0;strokeColor=default;strokeWidth=1;fontFamily=Helvetica;fontSize=12;fontColor=default;fontStyle=2;fillColor=default;" vertex="1" parent="WIyWlLk6GJQsqaUBKTNV-1">
          <mxGeometry x="827" y="700" width="190" height="140" as="geometry" />
        </mxCell>
        <mxCell id="K-ym3U2dnZnD68SBX74o-88" value="" style="endArrow=diamondThin;endFill=1;endSize=24;html=1;rounded=0;hachureGap=4;fontFamily=Helvetica;fontSource=https%3A%2F%2Ffonts.googleapis.com%2Fcss%3Ffamily%3DArchitects%2BDaughter;fontSize=12;fontColor=default;fontStyle=2;exitX=0.25;exitY=0;exitDx=0;exitDy=0;entryX=0.86;entryY=1.021;entryDx=0;entryDy=0;entryPerimeter=0;" edge="1" parent="WIyWlLk6GJQsqaUBKTNV-1" source="K-ym3U2dnZnD68SBX74o-87" target="K-ym3U2dnZnD68SBX74o-31">
          <mxGeometry width="160" relative="1" as="geometry">
            <mxPoint x="717" y="695" as="sourcePoint" />
            <mxPoint x="720" y="550" as="targetPoint" />
          </mxGeometry>
        </mxCell>
      </root>
    </mxGraphModel>
  </diagram>
</mxfile>
